<?xml version="1.0" encoding="utf-8"?>
<!-- Generator: Adobe Illustrator 26.0.1, SVG Export Plug-In . SVG Version: 6.00 Build 0)  -->
<svg version="1.1" id="Layer_1" xmlns="http://www.w3.org/2000/svg" xmlns:xlink="http://www.w3.org/1999/xlink" x="0px" y="0px"
	 viewBox="0 0 640 480" style="enable-background:new 0 0 640 480;" xml:space="preserve">
<style type="text/css">
	.st0{fill:#FFFFFF;}
	.st1{fill:#0253B3;}
</style>
<path class="st0" d="M390,371.9c2.3-4.9,4.3-9.2,6.4-13.5c23.3-48.6,14-110.6-23.7-145.5c-11.1-10.2-25.5-17.7-39.5-23.7
	c-11.9-5.1-21.7-11.4-30.7-20.6c-12.5-12.7-25.6-25-39.8-35.7c-21.6-16.3-47.1-13.4-65.8,6.3c-2.5,2.7-3.2,7.1-4.8,10.7
	c3.7,1.5,7.4,4.6,11,4.3c25-1.9,41.3,12.2,56,29.5c1.7,2,3.7,4.2,4.4,6.6c6.5,23.3,21.4,41.7,35.4,60.6
	c14.9,20.1,14.1,30.5-5.2,50.7c-24.8-23.2-50.4-45.5-74.1-69.8c-23.7-24.4-45.4-50.7-67.8-76.1c-10.9,17.9-11.2,18.9,2.2,34.5
	c19.1,22.2,38,44.6,58.3,65.6c20,20.8,41.7,39.9,63.9,61c-24.2,22.3-48.7,44.8-75.4,69.4l130,46.6c15.3-15.5,29.8-30.1,44.5-45
	c13.8,8,29.5,16.2,45.2,25.3c6.5-4.2,12.1-7.8,19.1-12.3C422.7,391,406.8,381.8,390,371.9z M358.3,342.9l-9.3,6.7
	c-0.8,0.6-1.9,0.3-2.4-0.5c-0.5-0.8-1.1-1.5-1.7-2.2c-1.1-1.2-2-2-2.6-2.6c-3.3-2.9-6.6-4.9-9.9-5.9c-3.3-1.1-6.3-1.5-9-1.5
	c-2.2,0.1-4.2,0.5-6,1.1c-0.4,0.1-0.9,0.2-1.3,0.4c0,0,0,0-0.1,0c-1.5,0.6-1.3,2.9,0.3,3.2c1.4,0.3,2.9,0.8,4.4,1.4
	c3.5,1.4,6.8,3.4,9.8,6c0.6,0.5,1,1,1.5,1.6c0.1,0.1,0.1,0.1,0.2,0.2c0.9,1.3,1.9,2.7,2.5,4.1c2,4.1,3,8.2,3.1,12.4
	c0.1,4.2-0.7,8.3-2.4,12.3c-1.1,2.7-2.7,5.2-4.4,7.7c-0.8,1.2-1.6,2.3-2.6,3.5c-3.4,3.9-7.5,7.3-12.3,10.2c-4.8,3-10,4.9-15.5,5.9
	s-11.3,0.7-17.3-0.9c-6-1.6-11.9-4.9-17.7-10c-2.5-2.2-4.3-4-5.5-5.6c-0.6-0.8-1.2-1.6-1.7-2.3c-0.5-0.8-0.4-1.8,0.4-2.4l9.2-6.7
	c0.8-0.6,1.9-0.4,2.5,0.5c0.5,0.8,1.1,1.5,1.7,2.2c1.1,1.1,1.9,2,2.6,2.6c3.4,2.9,6.7,4.9,9.9,6c3.2,1,6.3,1.5,9,1.5
	c2.3-0.1,4.3-0.4,6.1-1c0.4-0.1,0.8-0.2,1.2-0.4c0.1,0,0.1-0.1,0.2-0.1c1.5-0.7,1.3-2.9-0.3-3.3c-1.5-0.3-3-0.8-4.5-1.4
	c-3.5-1.4-6.8-3.4-9.7-6c-0.6-0.5-1-1-1.5-1.6c-0.1-0.1-0.1-0.1-0.2-0.2c-0.9-1.3-1.9-2.7-2.6-4.1c-2-4.1-3-8.2-3-12.4
	c-0.1-4.1,0.7-8.2,2.4-12.2c1.1-2.7,2.7-5.2,4.4-7.7c0.8-1.2,1.6-2.3,2.6-3.4c3.4-3.9,7.5-7.3,12.3-10.2c4.8-3,10-4.9,15.5-5.9
	s11.3-0.7,17.3,0.8c6,1.5,11.9,4.9,17.7,10c2.5,2.2,4.3,4,5.5,5.6c0.6,0.9,1.2,1.6,1.6,2.3C359.3,341.3,359.1,342.3,358.3,342.9z"/>
<path class="st0" d="M143.6,77.7c-11.3,0.5-16.7,5.8-16.6,17.1c0.4,21.9,12.8,38.4,23.6,55.4c14.8-20.4,29-39.8,43.4-59.7
	C178.5,83.1,162,77,143.6,77.7z"/>
<path class="st0" d="M455.1,147.7c6.7-6.1,6.6-14.5,2.1-22c-2.9-4.8-6.9-9.1-10.9-13.1c-9.7-9.9-18.2-10.6-29-1.8
	c-14.2,11.5-27.8,23.6-41.7,35.4c-7.7,6.5-12.4,14.5-7.5,23.9c5.7,11,12.8,21.7,27.7,23.8c3.2-1.2,7.3-1.6,10-3.8
	C422.5,176.2,439.1,162.2,455.1,147.7z"/>
<path class="st0" d="M306.4,350.8c-1.6-0.1-3.1,0-4.6,0.6c-1.5,0.6-2.9,1.6-4.2,3.1c0,0,0,0.1-0.1,0.1c-0.2,0.3-0.4,0.6-0.6,0.8
	c-0.3,0.4-0.6,0.9-0.8,1.3c-0.5,0.9-0.9,1.8-1.1,2.8c-0.3,1.6-0.3,3.2,0.2,4.8c0.4,1.6,1.2,3.2,2.4,4.8c1.1,1.6,2.5,3.1,4.2,4.6
	c1.3,1.2,2.8,2.1,4.3,2.8c1.6,0.7,3.1,1.2,4.7,1.3c1.6,0.1,3.1,0,4.6-0.6c1.5-0.6,2.9-1.6,4.2-3.1c0,0,0-0.1,0.1-0.1
	c0.2-0.3,0.4-0.6,0.6-0.9c0.3-0.4,0.6-0.8,0.8-1.2c1.4-2.5,1.7-5,0.9-7.6c-1-3.3-3.3-6.4-6.6-9.4c-1.3-1.2-2.8-2.1-4.3-2.8
	C309.5,351.4,308,351,306.4,350.8z"/>
<path class="st0" d="M487.3,198.6c3.9-3.5,5.9-9.1,7.3-11.4c0.2-15.5-8.8-22.1-16.3-29.3c-6.8-6.5-15.5-7.3-22.9-1.4
	c-16.3,13-32.4,26.4-47.8,40.5c-8.8,8-8.6,16.8-1.4,26.5c3.4,4.6,7.1,9,11.3,12.8c7.8,6.9,16.6,7.6,24.8,0.8
	C457.5,224.6,472.6,211.8,487.3,198.6z"/>
<path class="st0" d="M502.3,351.6c-18.9,16.8-37.8,33.6-59.1,52.5c18.4,5.6,36.8,12.7,55.8,16.6c17.6,3.6,28.1-7.5,24.6-24.2
	C519.5,377.3,509.3,361,502.3,351.6z"/>
<path class="st0" d="M473.3,287.3c8.4-6.3,16.3-13.6,23.7-21.1c2.9-2.9,3.9-7.7,7-14.2c-4.8-6.6-9-14-14.6-19.9
	c-9.3-9.8-18.5-10-29-1.6c-7.1,5.6-14.1,11.5-20.4,17.9c-9.7,9.9-8.9,18.9,2.2,31.9C452.7,293,462.4,295.5,473.3,287.3z"/>
<path class="st1" d="M509.6,340.3c-3.6-6.9-4.2-11.6-0.9-18.5c18-37.3,24.4-76.7,17.3-117.5C501.1,60.6,340-8,219.1,73.8
	c-8.1,5.5-13.9,5.5-22.5,1.8c-22.3-9.7-45-18.6-70.1-17c-16.8,1.1-27.2,11.1-26.3,27.8c0.5,8.9,2,18.5,5.8,26.4
	c9.5,19.4,20.8,37.8,30.8,57c2.4,4.5,4.1,10.8,3,15.6c-13.4,55.7-5.2,108.1,25.2,156.4c9.9,15.7,23.3,29.2,35.9,44.7
	c26.7-24.6,51.1-47.1,75.4-69.4c-22.2-21.1-43.9-40.2-63.9-61c-20.3-21-39.2-43.4-58.3-65.6c-13.4-15.6-13.1-16.6-2.2-34.5
	c22.5,25.4,44.1,51.7,67.8,76.1c23.6,24.3,49.3,46.7,74.1,69.8c19.3-20.2,20.1-30.6,5.2-50.7c-14-18.9-28.8-37.3-35.4-60.6
	c-0.7-2.4-2.7-4.6-4.4-6.6c-14.7-17.3-30.9-31.5-56-29.5c-3.5,0.3-7.3-2.8-11-4.3c1.6-3.6,2.3-8,4.8-10.7
	c18.6-19.7,44.2-22.7,65.8-6.3c14.2,10.7,27.4,23,39.8,35.7c9,9.2,18.8,15.5,30.7,20.6c14,6,28.5,13.4,39.5,23.7
	c37.7,34.9,47,96.9,23.7,145.5c-2.1,4.3-4.1,8.6-6.4,13.5c16.9,9.9,32.7,19.1,49.6,29c-7,4.5-12.6,8.1-19.1,12.3
	c27,13.1,53.3,25,82.3,27.7c26.7,2.4,43.2-11,35.3-37.7C531.6,381.3,520.2,360.7,509.6,340.3z M150.7,150.2
	c-10.8-17-23.3-33.5-23.6-55.4c-0.2-11.3,5.3-16.6,16.6-17.1c18.3-0.8,34.8,5.3,50.5,12.8C179.7,110.4,165.5,129.8,150.7,150.2z
	 M368.2,170c-4.9-9.4-0.2-17.5,7.5-23.9c13.9-11.8,27.5-23.9,41.7-35.4c10.8-8.8,19.3-8,29,1.8c4,4,8,8.3,10.9,13.1
	c4.5,7.5,4.6,15.9-2.1,22c-16,14.5-32.6,28.5-49.2,42.3c-2.7,2.2-6.8,2.7-10,3.8C381,191.7,374,181,368.2,170z M417.5,236.3
	c-4.2-3.7-7.9-8.2-11.3-12.8c-7.2-9.7-7.3-18.5,1.4-26.5c15.4-14.1,31.5-27.4,47.8-40.5c7.4-5.9,16-5.1,22.9,1.4
	c7.5,7.2,16.5,13.8,16.3,29.3c-1.4,2.3-3.4,7.9-7.3,11.4c-14.7,13.2-29.8,25.9-45,38.5C434.1,243.9,425.3,243.2,417.5,236.3z
	 M439.8,248.5c6.3-6.4,13.3-12.3,20.4-17.9c10.6-8.4,19.7-8.2,29,1.6c5.7,6,9.9,13.3,14.6,19.9c-3,6.4-4.1,11.2-7,14.2
	c-7.4,7.5-15.2,14.8-23.7,21.1c-10.9,8.2-20.6,5.6-31.3-7C430.9,267.3,430.1,258.3,439.8,248.5z M499,420.6
	c-19-3.9-37.4-11-55.8-16.6c21.3-18.9,40.2-35.7,59.1-52.5c7,9.5,17.2,25.7,21.3,44.9C527,413.2,516.6,424.2,499,420.6z"/>
<path class="st1" d="M330.8,432.9c30.7,0.6,60.5-7.1,89.6-19.7c-15.6-9.1-31.4-17.3-45.2-25.3C360.5,402.8,346.1,417.4,330.8,432.9z
	"/>
<path class="st1" d="M357.1,338.2c-1.2-1.6-3-3.4-5.5-5.6c-5.8-5.1-11.8-8.5-17.7-10c-6-1.5-11.7-1.8-17.3-0.8s-10.7,3-15.5,5.9
	c-4.8,3-8.9,6.4-12.3,10.2c-1,1.1-1.7,2.3-2.6,3.4c-1.7,2.5-3.3,5-4.4,7.7c-1.7,4-2.5,8.1-2.4,12.2c0.1,4.2,1.1,8.3,3,12.4
	c0.7,1.4,1.6,2.7,2.6,4.1c0,0.1,0.1,0.1,0.2,0.2c0.5,0.5,1,1.1,1.5,1.6c3,2.6,6.2,4.6,9.7,6c1.6,0.6,3.1,1.1,4.5,1.4
	c1.6,0.4,1.9,2.6,0.3,3.3c-0.1,0-0.1,0.1-0.2,0.1c-0.4,0.2-0.8,0.2-1.2,0.4c-1.8,0.6-3.8,1-6.1,1c-2.8,0.1-5.8-0.4-9-1.5
	c-3.2-1-6.5-3-9.9-6c-0.7-0.6-1.5-1.4-2.6-2.6c-0.6-0.7-1.2-1.4-1.7-2.2c-0.5-0.8-1.7-1.1-2.5-0.5l-9.2,6.7
	c-0.8,0.6-0.9,1.6-0.4,2.4c0.5,0.7,1,1.4,1.7,2.3c1.2,1.6,3,3.4,5.5,5.6c5.8,5.1,11.7,8.4,17.7,10c6,1.5,11.8,1.8,17.3,0.9
	s10.7-3,15.5-5.9c4.8-3,8.9-6.4,12.3-10.2c1-1.1,1.7-2.3,2.6-3.5c1.7-2.5,3.3-5,4.4-7.7c1.7-4,2.4-8.1,2.4-12.3
	c-0.1-4.2-1.1-8.3-3.1-12.4c-0.7-1.4-1.6-2.7-2.5-4.1c0-0.1-0.1-0.1-0.2-0.2c-0.5-0.5-1-1.1-1.5-1.6c-3-2.6-6.2-4.6-9.8-6
	c-1.5-0.6-3-1.1-4.4-1.4c-1.6-0.4-1.8-2.6-0.3-3.2c0,0,0,0,0.1,0c0.4-0.2,0.9-0.3,1.3-0.4c1.8-0.6,3.8-1,6-1.1
	c2.8-0.1,5.8,0.4,9,1.5c3.3,1,6.6,3,9.9,5.9c0.7,0.6,1.5,1.5,2.6,2.6c0.7,0.7,1.2,1.4,1.7,2.2c0.5,0.8,1.6,1.1,2.4,0.5l9.3-6.7
	c0.8-0.5,1-1.6,0.4-2.4C358.3,339.8,357.7,339.1,357.1,338.2z M315.3,354.9c3.4,3,5.6,6.1,6.6,9.4c0.8,2.6,0.5,5.1-0.9,7.6
	c-0.2,0.4-0.5,0.8-0.8,1.2c-0.2,0.3-0.4,0.6-0.6,0.9c0,0,0,0.1-0.1,0.1c-1.3,1.5-2.7,2.5-4.2,3.1c-1.5,0.6-3.1,0.8-4.6,0.6
	c-1.6-0.2-3.1-0.6-4.7-1.3c-1.5-0.7-3-1.7-4.3-2.8c-1.7-1.5-3-3-4.2-4.6c-1.1-1.6-1.9-3.2-2.4-4.8c-0.5-1.6-0.5-3.2-0.2-4.8
	c0.2-0.9,0.6-1.8,1.1-2.8c0.2-0.4,0.5-0.9,0.8-1.3c0.2-0.3,0.4-0.5,0.6-0.8c0,0,0-0.1,0.1-0.1c1.3-1.5,2.7-2.5,4.2-3.1
	c1.5-0.6,3.1-0.8,4.6-0.6c1.6,0.2,3.1,0.6,4.6,1.3C312.6,352.8,314,353.8,315.3,354.9z"/>
<path class="st0" d="M330.8,432.9l-130-46.6C200.8,386.3,252.3,429.3,330.8,432.9z"/>
</svg>
